# xmcd
#
# Track frame offsets:
#	150
#	10822
#	23197
#	34232
#	45171
#	57894
#	69697
#	82361
#	95383
#	107131
#	116845
#	128425
#	139764
#	150554
#	159440
#	170551
#	182824
#	195964
#	209014
#	222711
#
# Disc length: 3117 seconds
#
# Revision: 1
# Processed by: cddbd v1.5.2PL0 Copyright (c) Steve Scherf et al.
# Submitted via: EasyCDDAExtractor 15.3.0.1
#
DISCID=1b0c2b14
DTITLE=Drifters - The Best Of The Drifters [CD 2)
DYEAR=1900
DGENRE=Soul
TTITLE0=Dance With Me
TTITLE1=Lonely Winds
TTITLE2=Honky Tonk
TTITLE3=Fools Fall In Love
TTITLE4=Someday Want You'll Want Me To Want You
TTITLE5=Stranger On The Shore
TTITLE6=Another Night With The Boys
TTITLE7=I Make Believe
TTITLE8=Bells Of St. Mary's
TTITLE9=I Gotta Get Myself A Woman
TTITLE10=Loneliness Or Happiiness
TTITLE11=Nobody But Me
TTITLE12=Sadie My Lady
TTITLE13=Hypnotised
TTITLE14=Souvenirs
TTITLE15=Warm Your Heart
TTITLE16=Money Honey
TTITLE17=What To Do
TTITLE18=On Broadway (Alt. Vers.)
TTITLE19=Save The Last Dance For Me
EXTD=
EXTT0=
EXTT1=
EXTT2=
EXTT3=
EXTT4=
EXTT5=
EXTT6=
EXTT7=
EXTT8=
EXTT9=
EXTT10=
EXTT11=
EXTT12=
EXTT13=
EXTT14=
EXTT15=
EXTT16=
EXTT17=
EXTT18=
EXTT19=
PLAYORDER=
